<svg width="100" height="100" viewBox="0 0 100 100" fill="none" xmlns="http://www.w3.org/2000/svg">
<g clip-path="url(#clip0_44_11)">
<path d="M17.291 90.6756C17.2113 91.7461 17.5545 92.8052 18.247 93.6255C18.9394 94.4458 19.9259 94.9618 20.9946 95.0629H79.0217C80.0905 94.9618 81.0769 94.4458 81.7694 93.6255C82.4618 92.8052 82.805 91.7461 82.7253 90.6756V30.2469H17.291V90.6756ZM24.4103 49.0757C24.4103 48.3442 24.7009 47.6427 25.2181 47.1254C25.7353 46.6082 26.4368 46.3177 27.1683 46.3177C27.8998 46.3177 28.6014 46.6082 29.1186 47.1254C29.6358 47.6427 29.9264 48.3442 29.9264 49.0757V62.0366C29.9264 62.768 29.6358 63.4696 29.1186 63.9868C28.6014 64.5041 27.8998 64.7947 27.1683 64.7947C26.4368 64.7947 25.7353 64.5041 25.2181 63.9868C24.7009 63.4696 24.4103 62.768 24.4103 62.0366V49.0757Z" fill="#FF6123"/>
<path d="M82.7253 4.38578C82.805 3.31544 82.4618 2.2565 81.7693 1.43647C81.0768 0.616438 80.0903 0.100685 79.0217 0H20.9946C19.926 0.100685 18.9396 0.616438 18.2471 1.43647C17.5546 2.2565 17.2113 3.31544 17.291 4.38578V29.0119H82.7253V4.38578ZM29.9264 19.9983C29.7901 20.6285 29.442 21.1931 28.9402 21.5979C28.4384 22.0028 27.8131 22.2236 27.1683 22.2236C26.5236 22.2236 25.8982 22.0028 25.3964 21.5979C24.8946 21.1931 24.5466 20.6285 24.4103 19.9983V9.62704C24.5481 8.99811 24.8967 8.43514 25.3983 8.03152C25.9 7.6279 26.5245 7.40789 27.1683 7.40789C27.8122 7.40789 28.4367 7.6279 28.9383 8.03152C29.4399 8.43514 29.7886 8.99811 29.9264 9.62704V19.9983Z" fill="#FF6123"/>
<path d="M37.0538 96.2981H24.708V100.002H37.0538V96.2981Z" fill="#FF6123"/>
<path d="M75.3083 96.2981H62.9625V100.002H75.3083V96.2981Z" fill="#FF6123"/>
</g>
<defs>
<clipPath id="clip0_44_11">
<rect width="100" height="100" fill="white"/>
</clipPath>
</defs>
</svg>
