<svg width="100" height="100" viewBox="0 0 100 100" fill="none" xmlns="http://www.w3.org/2000/svg">
<path d="M91.6667 29.1667V37.5C91.6667 40.8152 90.3497 43.9946 88.0055 46.3388C85.6613 48.683 82.4819 50 79.1667 50H58.3333C57.2283 50 56.1685 50.439 55.3871 51.2204C54.6057 52.0018 54.1667 53.0616 54.1667 54.1667H58.3333C59.4384 54.1667 60.4982 54.6057 61.2796 55.3871C62.061 56.1685 62.5 57.2283 62.5 58.3333V87.5C62.5 88.6051 62.061 89.6649 61.2796 90.4463C60.4982 91.2277 59.4384 91.6667 58.3333 91.6667H41.6667C40.5616 91.6667 39.5018 91.2277 38.7204 90.4463C37.939 89.6649 37.5 88.6051 37.5 87.5V58.3333C37.5 57.2283 37.939 56.1685 38.7204 55.3871C39.5018 54.6057 40.5616 54.1667 41.6667 54.1667H45.8333C45.8333 50.8515 47.1503 47.672 49.4945 45.3278C51.8387 42.9836 55.0181 41.6667 58.3333 41.6667H79.1667C80.2717 41.6667 81.3315 41.2277 82.1129 40.4463C82.8944 39.6649 83.3333 38.6051 83.3333 37.5V29.1667C83.3333 28.0616 82.8944 27.0018 82.1129 26.2204C81.3315 25.439 80.2717 25 79.1667 25H74.2333C73.3799 27.4322 71.7931 29.5397 69.6917 31.0323C67.5902 32.5248 65.0775 33.3287 62.5 33.3333H20.8333C17.5181 33.3333 14.3387 32.0164 11.9945 29.6722C9.6503 27.328 8.33334 24.1485 8.33334 20.8333C8.33334 17.5181 9.6503 14.3387 11.9945 11.9945C14.3387 9.6503 17.5181 8.33334 20.8333 8.33334H62.5C65.0775 8.33795 67.5902 9.14192 69.6917 10.6344C71.7931 12.1269 73.3799 14.2345 74.2333 16.6667H79.1667C82.4819 16.6667 85.6613 17.9836 88.0055 20.3278C90.3497 22.672 91.6667 25.8515 91.6667 29.1667ZM15.4167 66.6667H17.9167C19.975 66.4647 21.8714 65.4616 23.1967 63.8737C24.5219 62.2858 25.1696 60.2405 25 58.1792C25.0111 56.4205 24.5429 54.6919 23.6458 53.1792L16.6667 41.6667L9.6875 53.1833C8.79115 54.6949 8.32304 56.4219 8.33334 58.1792C8.16377 60.2405 8.81148 62.2858 10.1367 63.8737C11.4619 65.4616 13.3583 66.4647 15.4167 66.6667Z" fill="#FF6123"/>
</svg>
