<svg width="100" height="100" viewBox="0 0 100 100" fill="none" xmlns="http://www.w3.org/2000/svg">
<path d="M81.5853 56.25C81.5934 57.5303 81.2047 58.7816 80.4724 59.8319C79.7402 60.8821 78.7004 61.6796 77.4963 62.1147L57.1213 69.6213L49.6147 89.9963C49.1726 91.1959 48.3734 92.231 47.3247 92.9622C46.276 93.6933 45.0284 94.0853 43.75 94.0853C42.4716 94.0853 41.2239 93.6933 40.1753 92.9622C39.1266 92.231 38.3273 91.1959 37.8853 89.9963L30.3787 69.6213L10.0037 62.1147C8.80412 61.6727 7.76898 60.8734 7.03783 59.8247C6.30668 58.776 5.91467 57.5284 5.91467 56.25C5.91467 54.9716 6.30668 53.724 7.03783 52.6753C7.76898 51.6266 8.80412 50.8273 10.0037 50.3853L30.3787 42.8787L37.8853 22.5037C38.3273 21.3041 39.1266 20.269 40.1753 19.5378C41.2239 18.8067 42.4716 18.4147 43.75 18.4147C45.0284 18.4147 46.276 18.8067 47.3247 19.5378C48.3734 20.269 49.1726 21.3041 49.6147 22.5037L57.1213 42.8787L77.4963 50.3853C78.7004 50.8204 79.7402 51.6179 80.4724 52.6681C81.2047 53.7184 81.5934 54.9697 81.5853 56.25ZM59.375 18.75H65.625V25C65.625 25.8288 65.9542 26.6237 66.5403 27.2097C67.1263 27.7958 67.9212 28.125 68.75 28.125C69.5788 28.125 70.3736 27.7958 70.9597 27.2097C71.5457 26.6237 71.875 25.8288 71.875 25V18.75H78.125C78.9538 18.75 79.7486 18.4208 80.3347 17.8347C80.9207 17.2487 81.25 16.4538 81.25 15.625C81.25 14.7962 80.9207 14.0013 80.3347 13.4153C79.7486 12.8292 78.9538 12.5 78.125 12.5H71.875V6.25C71.875 5.4212 71.5457 4.62634 70.9597 4.04029C70.3736 3.45424 69.5788 3.125 68.75 3.125C67.9212 3.125 67.1263 3.45424 66.5403 4.04029C65.9542 4.62634 65.625 5.4212 65.625 6.25V12.5H59.375C58.5462 12.5 57.7513 12.8292 57.1653 13.4153C56.5792 14.0013 56.25 14.7962 56.25 15.625C56.25 16.4538 56.5792 17.2487 57.1653 17.8347C57.7513 18.4208 58.5462 18.75 59.375 18.75ZM93.75 31.25H90.625V28.125C90.625 27.2962 90.2957 26.5013 89.7097 25.9153C89.1236 25.3292 88.3288 25 87.5 25C86.6712 25 85.8763 25.3292 85.2903 25.9153C84.7042 26.5013 84.375 27.2962 84.375 28.125V31.25H81.25C80.4212 31.25 79.6263 31.5792 79.0403 32.1653C78.4542 32.7513 78.125 33.5462 78.125 34.375C78.125 35.2038 78.4542 35.9987 79.0403 36.5847C79.6263 37.1708 80.4212 37.5 81.25 37.5H84.375V40.625C84.375 41.4538 84.7042 42.2487 85.2903 42.8347C85.8763 43.4208 86.6712 43.75 87.5 43.75C88.3288 43.75 89.1236 43.4208 89.7097 42.8347C90.2957 42.2487 90.625 41.4538 90.625 40.625V37.5H93.75C94.5788 37.5 95.3736 37.1708 95.9597 36.5847C96.5457 35.9987 96.875 35.2038 96.875 34.375C96.875 33.5462 96.5457 32.7513 95.9597 32.1653C95.3736 31.5792 94.5788 31.25 93.75 31.25Z" fill="#FF6123"/>
</svg>
