<svg width="100" height="100" viewBox="0 0 100 100" fill="none" xmlns="http://www.w3.org/2000/svg">
<path d="M50.4994 8C27.5816 8 9 26.5818 9 49.5C9 72.4182 27.5816 91 50.4994 91C73.4185 91 92 72.4182 92 49.5C92 26.5818 73.4185 8 50.4994 8ZM74.1505 49.9192L53.2628 62.389C53.1134 62.4775 52.9234 62.4827 52.7689 62.3915C52.6183 62.308 52.5244 62.1459 52.5244 61.9659V52.5205L35.9935 62.3889C35.844 62.4774 35.654 62.4826 35.4995 62.3913C35.3514 62.3078 35.2551 62.1457 35.2551 61.9658V49.5011V37.0313C35.2551 36.8566 35.3514 36.6919 35.4995 36.6058C35.6542 36.5173 35.844 36.5223 35.9935 36.6108L52.5244 46.4792V37.0312C52.5244 36.8564 52.6181 36.6917 52.7689 36.6056C52.9235 36.5171 53.1135 36.5221 53.2628 36.6106L74.1505 49.0805C74.2999 49.1639 74.3886 49.3287 74.3886 49.501C74.3886 49.6735 74.2999 49.833 74.1505 49.9192Z" fill="#FF6123"/>
</svg>
