<svg width="100" height="99" viewBox="0 0 100 99" fill="none" xmlns="http://www.w3.org/2000/svg">
<path d="M90.625 20.875V34.9375H53.125V17.75H87.5C88.3288 17.75 89.1236 18.0793 89.7097 18.6653C90.2957 19.2514 90.625 20.0462 90.625 20.875ZM71.875 58.375H90.625V41.1875H71.875V58.375ZM34.375 58.375H65.625V41.1875H34.375V58.375ZM28.125 41.1875H9.375V58.375H28.125V41.1875ZM53.125 80.25H87.5C88.3288 80.25 89.1236 79.9207 89.7097 79.3347C90.2957 78.7486 90.625 77.9538 90.625 77.125V64.625H53.125V80.25ZM46.875 17.75H12.5C11.6712 17.75 10.8763 18.0793 10.2903 18.6653C9.70425 19.2514 9.37501 20.0462 9.375 20.875V34.9375H46.875V17.75ZM9.375 77.125C9.37501 77.9538 9.70425 78.7486 10.2903 79.3347C10.8763 79.9207 11.6712 80.25 12.5 80.25H46.875V64.625H9.375V77.125Z" fill="#FF6123"/>
</svg>
